<svg xmlns="http://www.w3.org/2000/svg" width="611.492" height="523.95294" viewBox="0 0 611.492 523.95294" xmlns:xlink="http://www.w3.org/1999/xlink"><path d="M84.10482,513.25159c-1.21703,.07623-1.88965-1.43585-.96888-2.31714l.09161-.3642-.0364-.0874c-1.23077-2.93475-5.40199-2.91449-6.6223,.0246-1.08311,2.60864-2.46209,5.22174-2.80163,7.97992-.15221,1.21753-.08373,2.45795,.18644,3.65271-2.53788-5.54376-3.87342-11.59735-3.87342-17.68524,0-1.5296,.08373-3.0592,.25493-4.58496,.14079-1.24805,.33484-2.4884,.58598-3.71741,1.35831-6.6434,4.29955-12.97095,8.54201-18.25598,2.03944-1.11487,3.74023-2.85751,4.76755-4.94638,.36907-.75339,.65825-1.56384,.79523-2.3895-.23209,.03043-.87515-3.50436-.70009-3.72122-.32345-.49081-.90237-.7348-1.25563-1.21375-1.75688-2.38196-4.17742-1.96606-5.44104,1.27084-2.69939,1.36237-2.72552,3.62183-1.06919,5.79486,1.05377,1.38251,1.19856,3.2532,2.12316,4.73328-.09514,.12177-.19407,.23975-.28919,.36151-1.74436,2.23734-3.25305,4.64212-4.52489,7.16849,.35945-2.80777-.17123-6.19037-1.07594-8.37085-1.02986-2.48441-2.96017-4.57681-4.66004-6.72458-2.04182-2.5798-6.22877-1.45392-6.58849,1.81638l-.0102,.09497c.25249,.14243,.49984,.29376,.74146,.45355,1.37819,.91147,.90189,3.04791-.73112,3.29999l-.03698,.00571c.09133,.90939,.24733,1.81116,.4756,2.69772-2.18072,8.43344,2.5273,11.50504,9.24972,11.64304,.1484,.07608,.29301,.15219,.44141,.22452-.6811,1.91766-1.22522,3.8848-1.62851,5.87857-.36146,1.76166-.61261,3.54236-.75337,5.33069-.17505,2.25629-.15982,4.52405,.03045,6.77655l-.01142-.0799c-.48321-2.48077-1.83016-4.79797-3.7859-6.40369-2.91346-2.39331-7.02962-3.2746-10.17272-5.19836-1.513-.92603-3.4518,.27066-3.18774,2.02478l.01285,.08398c.468,.19019,.92458,.41095,1.36595,.6582,.25249,.14246,.49984,.29376,.74146,.45355,1.37819,.9115,.90189,3.04797-.73112,3.30005l-.03701,.00568-.07606,.01147c.80284,1.90619,1.92145,3.67554,3.32166,5.20129,1.36355,7.36206,7.22002,8.06055,13.48461,5.91663h.00382c.68488,2.98309,1.68558,5.89764,2.97165,8.67523h10.61568c.03808-.11792,.07231-.23975,.10656-.35767-.98167,.06091-1.97095,.00378-2.93742-.17499,.78763-.96649,1.57523-1.94055,2.36286-2.90698,.01902-.01904,.03427-.03809,.04947-.05707,.39951-.49463,.80284-.98547,1.20234-1.4801l.00022-.00061c.02501-1.51843-.15701-3.03186-.51767-4.50061l-.00033-.00018-.00002-.00006,.00006,.00006Z" fill="#f2f2f2"/><path d="M535.94708,513.25159c1.21704,.07623,1.88965-1.43585,.96887-2.31714l-.09161-.3642,.03638-.0874c1.23077-2.93475,5.40198-2.91449,6.62231,.0246,1.08313,2.60864,2.4621,5.22174,2.80164,7.97992,.15222,1.21753,.08374,2.45795-.18646,3.65271,2.5379-5.54376,3.87341-11.59735,3.87341-17.68524,0-1.5296-.08374-3.0592-.25494-4.58496-.14081-1.24805-.33484-2.4884-.586-3.71741-1.35834-6.6434-4.29956-12.97095-8.54199-18.25598-2.03943-1.11487-3.74023-2.85751-4.76758-4.94638-.36908-.75339-.65826-1.56384-.79523-2.3895,.23212,.03043,.87512-3.50436,.70007-3.72122,.32343-.49081,.90234-.7348,1.25562-1.21375,1.7569-2.38196,4.17743-1.96606,5.44104,1.27084,2.6994,1.36237,2.72552,3.62183,1.06921,5.79486-1.05377,1.38251-1.19855,3.2532-2.12317,4.73328,.09515,.12177,.19409,.23975,.28918,.36151,1.74438,2.23734,3.25305,4.64212,4.5249,7.16849-.35944-2.80777,.1712-6.19037,1.07593-8.37085,1.02985-2.48441,2.96014-4.57681,4.66003-6.72458,2.04181-2.5798,6.22876-1.45392,6.5885,1.81638l.01019,.09497c-.2525,.14243-.49982,.29376-.74146,.45355-1.37817,.91147-.90192,3.04791,.73114,3.29999l.03699,.00571c-.09131,.90939-.24731,1.81116-.47559,2.69772,2.18073,8.43344-2.52728,11.50504-9.24969,11.64304-.14838,.07608-.29303,.15219-.44141,.22452,.68109,1.91766,1.22522,3.8848,1.62854,5.87857,.36145,1.76166,.61261,3.54236,.75336,5.33069,.17505,2.25629,.15979,4.52405-.03046,6.77655l.01141-.0799c.48322-2.48077,1.83014-4.79797,3.78589-6.40369,2.91345-2.39331,7.0296-3.2746,10.17273-5.19836,1.513-.92603,3.45178,.27066,3.18774,2.02478l-.01288,.08398c-.46802,.19019-.92456,.41095-1.36597,.6582-.2525,.14246-.49982,.29376-.74146,.45355-1.37817,.9115-.90192,3.04797,.73114,3.30005l.03699,.00568,.07605,.01147c-.80286,1.90619-1.92145,3.67554-3.32166,5.20129-1.36353,7.36206-7.22003,8.06055-13.48462,5.91663h-.00385c-.68488,2.98309-1.68561,5.89764-2.97168,8.67523h-10.61566c-.03809-.11792-.07233-.23975-.10657-.35767,.98169,.06091,1.97095,.00378,2.93744-.17499-.78766-.96649-1.57526-1.94055-2.36285-2.90698-.01904-.01904-.03424-.03809-.0495-.05707-.39954-.49463-.80286-.98547-1.20233-1.4801l-.00024-.00061c-.02502-1.51843,.15698-3.03186,.5177-4.50061l.00031-.00018v-.00006l.00012,.00006Z" fill="#f2f2f2"/><g><polygon points="330.42502 517.7486 339.53735 517.74774 343.87213 482.59982 330.42316 482.60071 330.42502 517.7486" fill="#ffb6b6"/><path d="M361.64496,517.54187h0c.28372,.47784,.43344,2.02008,.43344,2.57581h0c0,1.70807-1.38467,3.09271-3.09274,3.09271h-28.21979c-1.16525,0-2.10986-.94464-2.10986-2.10986v-1.17487s-1.39603-3.53113,1.47815-7.88342c0,0,3.57217,3.40796,8.90991-1.92981l1.57404-2.8515,11.39395,8.33295,6.31549,.7774c1.38168,.17004,2.60669-.02643,3.31744,1.17059h-.00003Z" fill="#2f2e41"/></g><g><polygon points="267.49289 517.7486 276.60522 517.74774 280.94 482.59982 267.49106 482.60071 267.49289 517.7486" fill="#ffb6b6"/><path d="M298.71286,517.54187h0c.28372,.47784,.43344,2.02008,.43344,2.57581h0c0,1.70807-1.38467,3.09271-3.09274,3.09271h-28.21979c-1.16525,0-2.10986-.94464-2.10986-2.10986v-1.17487s-1.39603-3.53113,1.47815-7.88342c0,0,3.57217,3.40796,8.90991-1.92981l1.57404-2.8515,11.39395,8.33295,6.31549,.7774c1.38168,.17004,2.60669-.02643,3.31744,1.17059h-.00003Z" fill="#2f2e41"/></g><path id="b-15" d="M1.01849,523.95294H610.47351c.5625,0,1.01849-.45599,1.01849-1.01849s-.45599-1.01849-1.01849-1.01849H1.01849c-.5625,0-1.01849,.45599-1.01849,1.01849s.45599,1.01849,1.01849,1.01849Z" fill="#e6e6e6"/><path id="c-16" d="M333.14899,351.75031l3.37701,4.44199s.30603,2.07401,5.42798,18.974l2.81,127.022h-17l-22.71899-101.63297-23.58197,103.67099-14.73499,.86902,.69098-117.83301s-1.55164-4.10043-.23172-8.90567c5.05173-18.39136,4.76044-13.54257,4.96774-19.83832,.26285-7.98248,60.99396-6.76804,60.99396-6.76804Z" fill="#2f2e41"/><circle id="d" cx="306.35303" cy="227.17233" r="17.83701" fill="#feb8b8"/><path id="e-17" d="M296.763,248.36534l-9.87,5.45499c-8.23471,.59613-14.14044,2.78716-19.388,5.429l5.78699,50.73801-1.05298,49.978s32.81897,22.483,64.289-3.77399v-67.90799l-1.47748-27.00558c-.17227-3.14886-2.95694-5.59183-6.08325-5.1781-1.78543,.23627-3.84134,.19052-5.94135-.50946l-6.53244-7.58087-19.7305,.35605v-.00005Z" fill="#6c63ff"/><g><path d="M352.56717,206.50858c.9953,2.24483,1.40112,4.52834,1.2692,6.5079l10.83261,20.78603-10.0416,4.86523-9.90741-21.60919c-1.5556-1.23135-2.97543-3.06525-3.97079-5.31007-2.27383-5.1283-1.47156-10.45859,1.7919-11.90555s7.75229,1.53731,10.02609,6.6656h0v.00005Z" fill="#ffb6b6"/><path id="f-18" d="M323.02594,255.59019l2.9881,1.36662c2.74161-2.94711,11.00027-2.48346,15.00726-2.10141l17.60876,1.67896-8.22284-25.72507,12.37921-4.98164,14.79181,28.46748c.89471,4.82928-1.11264,9.73624-5.13553,12.55383l-37.73965,21.43237-4.38699-29.35699-7.29013-3.33414v-.00002Z" fill="#6c63ff"/></g><g><path d="M231.76274,376.25491c.18797-2.44839,.91338-4.65131,1.96808-6.33173l.31755-23.43723,11.14793,.47736-1.52243,23.72333c.78584,1.82172,1.16643,4.10956,.97845,6.55792-.42944,5.59332-3.66306,9.90604-7.22243,9.63275s-6.09666-5.02911-5.66722-10.62241h0l.00005-.00003,.00002,.00003Z" fill="#ffb6b6"/><path id="g-19" d="M275.76624,265.66034l-5.12277-7.78119s-8.35495,1.5947-12.79431,7.89429-21.21986,44.9339-21.21986,44.9339l-3.22243,43.61346,12.48148-2.5705,6.02232-33.07611,19.36482-26.46204,4.49078-26.55185-.00003,.00003Z" fill="#6c63ff"/></g><path d="M324.19003,229.53821c.66998-3.40002-9.66863-8.34892-9.65047-8.34312,1.60486,.51225-.91923,3.4526-2.56785,3.10601,0,0-2.4223,1.23222-1.10233,2.29222-4.54999-.39001-10.62939-4.71402-15.17938-5.10403-1.83002-.15997-2.53888,4.25305-3.6889,5.68304-1.73999,2.19-3.48508-2.16534-2.84113,3.63696h-.25995c-.95001-2.28998-1.90002-4.62-2.21002-7.07996-.29999-2.46002,.12-5.11005,1.69-7.03003,.52002-.65002-1.52298-2.78984-.97293-3.40984,1.75-2.01001,5.14294-3.11018,6.70291-5.26015,2.06491-2.84814,4.41437-.83783,8.71402-3.23312,1.12491-.62668,3.08011-.85223,4.32602-.52686l2.90997,.75996h0c-.56729,.85094,.13467,1.97322,1.14807,1.83546l3.79196-.51546c1.42999,.45996,2.78998,1.13995,3.42999,2.44995,.39001,.78003,.46002,1.69,.76001,2.51001,.54999,1.51001,1.84998,2.60004,2.89001,3.82001,2.79579,.81416,2.94589,2.90413,2.94589,6.40886,2.6055,1.46161-.11319,4.72974-.83591,8.00006Z" fill="#2f2e41"/><g><path d="M32.3056,64.66941h0c.8119-2.27975,3.07606-3.62541,5.38132-3.36691,.96071,.10773,1.92058,.19329,2.88564,.13653,24.06981-1.41557,53.88227,12.36618,85.61883,31.23966h0c-29.05291-23.50843-55.64321-44.30417-86.9171-22.93323-2.23384,1.52649-5.39877,.98734-6.69819-1.38578-.52203-.95338-.71058-2.09595-.39927-3.27443,.03673-.13906,.07961-.27777,.12878-.41583h-.00001v-.00002Z" fill="#e6e6e6"/><path d="M232.43414,147.6059h0c-1.14275,2.05673-3.49461,3.01695-5.67509,2.48631-1.19344-.29044-2.38432-.58122-3.60422-.72438-23.82928-2.79643-50.75764-21.17929-78.73009-44.81306h0c27.69205,22.90805,55.49016,37.98544,83.51729,36.15714,3.4752-.2267,6.11795,3.32973,4.68747,6.50497-.05908,.13113-.12415,.26093-.19533,.38902h-.00003Z" fill="#e6e6e6"/><path d="M219.67477,140.98697h0c-.97707,1.74052-2.98798,2.55312-4.85233,2.10405-1.02042-.24577-2.03865-.49187-3.0817-.61301-20.37457-2.36649-43.39894-17.92306-67.31601-37.92324h0c23.67734,19.38603,47.44534,32.14533,71.40918,30.59812,2.97137-.19185,5.23099,2.81779,4.00789,5.50485-.05052,.11098-.10616,.22081-.16701,.32921h-.00003v.00002Z" fill="#6c63ff"/><path d="M182.23819,155.82193h0c-1.22173,.93774-2.88416,.90219-4.05557,.01585-.64114-.48511-1.28065-.96976-1.97604-1.37331-13.58331-7.88275-24.9704-25.93309-35.61758-47.40879h0c10.66771,20.96687,23.43762,37.25843,40.74599,43.45646,2.14613,.76852,2.8075,3.59239,1.1218,5.12698-.06963,.06339-.14249,.12437-.2186,.18279l.00002,.00002Z" fill="#e6e6e6"/><path d="M77.39896,150.36845h0c-.8451-1.28754-.68707-2.94283,.28322-4.0457,.53106-.60362,1.06154-1.20567,1.51527-1.8694,8.86284-12.96512,27.70366-22.99026,49.90597-32.025h0c-21.69636,9.0927-38.88516,20.62661-46.34254,37.43085-.92467,2.08363-3.78962,2.53497-5.19574,.74071-.05807-.0741-.11354-.15128-.16618-.23148l.00002,.00002Z" fill="#6c63ff"/><path d="M94.07605,140.53018h0c-.52615-.91393-.42777-2.08887,.17633-2.8717,.33063-.42847,.66091-.8558,.94339-1.32693,5.51794-9.20286,17.24811-16.31889,31.07111-22.7319h0c-13.508,6.45416-24.20964,14.64111-28.85255,26.56908-.57569,1.479-2.35939,1.79938-3.23483,.52577-.03615-.0526-.07069-.10738-.10346-.16431h.00002Z" fill="#e6e6e6"/><path d="M192.83894,8.28241h0c1.98395,1.26489,2.80037,3.67046,2.13899,5.81492l-.07458,.24196c-.66281,2.15276-2.10623,3.96141-4.01843,5.15185-27.36899,17.03845,4.31863,38.84358-46.33417,74.03983v-.00002c24.52843-26.24679,44.70352-87.02903,47.76846-85.53939,.17654,.0858,.35004,.18269,.51971,.29086h.00002Z" fill="#e6e6e6"/><path d="M44.832,157.14403h0c-1.15762-2.04839-.74881-4.55562,.84212-6.13837l.17947-.1786c1.59609-1.5894,3.71979-2.50841,5.96707-2.66148,32.16473-2.1909,14.42759-36.32243,75.67593-43.61082v.00002c-33.98098,11.65469-80.33583,55.84454-82.34232,53.0901-.11557-.15865-.22326-.32567-.32227-.50085v.00002Z" fill="#e6e6e6"/><path d="M118.14382,17.34689h0c1.1764-.26163,2.34393,.31273,2.88211,1.3284,.29456,.55591,.58812,1.11094,.94809,1.6269,7.03165,10.07862,9.14677,26.64428,9.60555,45.39537h0c-.64143-18.39691-4.31844-34.17175-14.54899-44.28577-1.26853-1.25408-.80488-3.47569,.8978-4.00745,.07032-.02196,.14216-.04116,.21544-.05746v.00002Z" fill="#6c63ff"/><path d="M118.14382,33.86163h0c1.1764-.18074,2.34393,.21604,2.88211,.91768,.29456,.38403,.58812,.76745,.94809,1.12389,7.03165,6.96247,9.14677,18.40629,9.60555,31.35983h0c-.64143-12.70888-4.31844-23.60638-14.54899-30.59331-1.26853-.86634-.80488-2.40106,.8978-2.76841,.07032-.01517,.14216-.02843,.21544-.03969h0Z" fill="#e6e6e6"/><path d="M97.09493,61.6616h0c.32768-.53035,.96194-.75566,1.53256-.58847,.31231,.09151,.62394,.18308,.94507,.23593,6.27275,1.03239,13.1746,6.22815,20.28839,12.8265h0c-7.04848-6.40283-14.22107-10.73438-21.6616-10.5942-.92258,.01738-1.57844-.95633-1.16088-1.7792,.01724-.03398,.03606-.06754,.05647-.10057h-.00002Z" fill="#6c63ff"/><path d="M83.17632,103.85632h0c-.13423-.6088,.16399-1.21221,.6899-1.48965,.28785-.15185,.57524-.30318,.84249-.48891,5.22028-3.62794,13.79164-4.70644,23.49195-4.92607h0c-9.51727,.31444-17.68102,2.20166-22.92262,7.48435-.64993,.65502-1.79872,.41308-2.07219-.46821-.01129-.0364-.02116-.07358-.02952-.1115l-.00002-.00002Z" fill="#6c63ff"/><path d="M189.45126,112.72344h0c-.39072,.48579-1.04796,.63097-1.59354,.39454-.29861-.12941-.59653-.25879-.90866-.35092-6.09706-1.79973-12.30385-7.80865-18.54761-15.23562h0c6.20311,7.22487,12.78537,12.40967,20.18619,13.19014,.91766,.09677,1.44814,1.14408,.93208,1.90903-.02132,.03159-.04413,.06256-.06847,.09282v.00002Z" fill="#6c63ff"/><path d="M133.48836,166.52692h0c-1.19765-.1342-2.11568-1.05629-2.2952-2.19164-.09827-.6214-.19586-1.24165-.36896-1.8465-3.38129-11.8148-.00732-28.17056,5.64243-46.05615h0c-5.36208,17.60982-7.00206,33.7243-.6064,46.61046,.79303,1.59781-.36633,3.54881-2.14943,3.49937-.07364-.00204-.14783-.00719-.22243-.01553l-.00002-.00002Z" fill="#6c63ff"/><polygon points="45.34017 87.02386 47.69936 94.28473 55.33389 94.28473 49.15743 98.77219 51.51663 106.03306 45.34017 101.5456 39.1637 106.03306 41.5229 98.77219 35.34644 94.28473 42.98097 94.28473 45.34017 87.02386" fill="#6c63ff"/><polygon points="150.54813 0 152.9073 7.26087 160.54184 7.26087 154.36539 11.74833 156.72458 19.0092 150.54813 14.52173 144.37164 19.0092 146.73085 11.74833 140.5544 7.26087 148.18892 7.26087 150.54813 0" fill="#e6e6e6"/><polygon points="206.39925 77.93181 208.75845 85.19268 216.39297 85.19268 210.21651 89.68015 212.57571 96.94101 206.39925 92.45355 200.22279 96.94101 202.58199 89.68015 196.40552 85.19268 204.04005 85.19268 206.39925 77.93181" fill="#6c63ff"/><polygon points="93.39812 157.16249 95.75732 164.42336 103.39185 164.42336 97.21538 168.91081 99.57458 176.17169 93.39812 171.68423 87.22165 176.17169 89.58085 168.91081 83.40439 164.42336 91.03892 164.42336 93.39812 157.16249" fill="#6c63ff"/><polygon points="136.26062 77.93181 138.61983 85.19268 146.25433 85.19268 140.07788 89.68015 142.43707 96.94101 136.26062 92.45355 130.08415 96.94101 132.44334 89.68015 126.26689 85.19268 133.90141 85.19268 136.26062 77.93181" fill="#6c63ff"/><polygon points="195.20354 0 197.56274 7.26087 205.19727 7.26087 199.0208 11.74833 201.38 19.0092 195.20354 14.52174 189.02708 19.0092 191.38628 11.74833 185.20982 7.26087 192.84435 7.26087 195.20354 0" fill="#e6e6e6"/><polygon points="41.33871 143.50191 44.33053 150.5258 51.93516 149.85091 46.17957 154.86681 49.17139 161.8907 42.62242 157.96681 36.86682 162.9827 38.57493 155.5417 32.02596 151.61778 39.6306 150.9429 41.33871 143.50191" fill="#e6e6e6"/></g><g><path d="M410.1615,99.95432h0c.55945-1.57089,2.1196-2.49814,3.70807-2.32001,.66199,.07423,1.32339,.13319,1.9884,.09408,16.5856-.97541,37.12827,8.52107,58.99673,21.52609h0c-20.01929-16.19878-38.34164-30.52835-59.89133-15.80244-1.53925,1.05184-3.72009,.68034-4.61548-.95489-.35971-.65694-.48962-1.44424-.27512-2.25629,.0253-.09582,.05487-.1914,.08875-.28653h0l-.00003-.00002Z" fill="#e6e6e6"/><path d="M548.06262,157.10275h0c-.78741,1.41722-2.40802,2.07887-3.91052,1.71323-.82233-.20013-1.64294-.4005-2.48352-.49915-16.41986-1.92693-34.97519-14.59386-54.24997-30.87901h0c19.08157,15.78508,38.23618,26.17435,57.54868,24.91454,2.39465-.1562,4.21564,2.29439,3.22998,4.48235-.04071,.09036-.08551,.17979-.13458,.26807h0l-.00006-.00002Z" fill="#e6e6e6"/><path d="M539.27063,152.5419h0c-.67328,1.19933-2.0589,1.75925-3.34357,1.44981-.70312-.16936-1.40479-.33891-2.12347-.42239-14.03937-1.63066-29.9046-12.35011-46.38495-26.13149h0c16.31516,13.35819,32.69281,22.15015,49.20538,21.08402,2.04749-.13219,3.60449,1.94164,2.76172,3.7932-.03479,.07648-.07312,.15215-.11505,.22685h-.00006Z" fill="#6c63ff"/><path d="M513.47443,162.76411h0c-.84186,.64616-1.98737,.62167-2.79453,.01093-.4418-.33427-.88245-.66821-1.36163-.94629-9.35974-5.43172-17.20618-17.86952-24.54276-32.66763h0c7.35071,14.44749,16.14999,25.67339,28.07654,29.94423,1.47882,.52956,1.93457,2.47537,.77301,3.53281-.04797,.04369-.09821,.08569-.15063,.12595h0v.00002Z" fill="#e6e6e6"/><path d="M441.23364,159.00633h0c-.58234-.88719-.47345-2.02779,.19516-2.78773,.36594-.41592,.73148-.83078,1.0441-1.28813,6.10706-8.93378,19.08957-15.84174,34.38834-22.06723h0c-14.95016,6.26544-26.79431,14.21303-31.93292,25.79221-.63715,1.43575-2.6113,1.74677-3.5802,.51039-.04001-.05106-.07825-.10423-.1145-.1595h.00003Z" fill="#6c63ff"/><path d="M452.72519,152.22716h0c-.36255-.62975-.29477-1.43936,.12149-1.97879,.22784-.29524,.45541-.58971,.65005-.91434,3.80222-6.34135,11.88504-11.24474,21.40994-15.6637h0c-9.30786,4.44733-16.68195,10.08865-19.88123,18.30775-.3967,1.01912-1.62576,1.23988-2.229,.36229-.0249-.03624-.04871-.07399-.07129-.11322h.00003Z" fill="#e6e6e6"/><path d="M520.77905,61.10014h0c1.36707,.87159,1.92963,2.52918,1.47388,4.00684l-.05139,.16672c-.45673,1.48339-1.45129,2.72966-2.76898,3.54995-18.85895,11.74056,2.97583,26.76566-31.92712,51.01808v-.00002c16.90164-18.08568,30.80353-59.96846,32.91547-58.942,.12164,.05912,.24121,.12589,.35809,.20042l.00006,.00002Z" fill="#e6e6e6"/><path d="M418.79297,163.67513h0c-.79767-1.41147-.51599-3.1391,.58029-4.22971l.12366-.12306c1.09982-1.09518,2.56317-1.72845,4.11169-1.83392,22.16351-1.50966,9.9415-25.02843,52.14545-30.05059h0c-23.41501,8.03083-55.35641,38.4804-56.73901,36.58242-.07965-.10931-.15384-.22441-.22205-.34512l-.00003-.00002Z" fill="#e6e6e6"/><path d="M469.30942,67.34613h0c.81061-.18028,1.61511,.21549,1.98596,.91535,.20297,.38306,.40524,.76551,.65329,1.12104,4.84525,6.9448,6.3027,18.35958,6.61884,31.28025h0c-.44199-12.67663-2.97568-23.54648-10.02518-30.51567-.87411-.86414-.5546-2.39497,.61865-2.76138,.04846-.01513,.09796-.02836,.14844-.03959h0Z" fill="#e6e6e6"/><path d="M469.30942,78.72582h0c.81061-.12454,1.61511,.14886,1.98596,.63234,.20297,.26462,.40524,.52882,.65329,.77443,4.84525,4.79758,6.3027,12.68309,6.61884,21.60889h0c-.44199-8.75721-2.97568-16.26628-10.02518-21.08071-.87411-.59696-.5546-1.65448,.61865-1.90761,.04846-.01045,.09796-.01959,.14844-.02735h0Z" fill="#e6e6e6"/><path d="M454.80539,97.88175h0c.2258-.36544,.66284-.5207,1.05603-.40549,.21521,.06305,.42993,.12616,.65121,.16257,4.32233,.71138,9.07812,4.29159,13.97998,8.83826h0c-4.85684-4.41195-9.79919-7.39666-14.92621-7.30007-.63571,.01198-1.08765-.65897-.79993-1.22598,.01187-.02342,.02484-.04654,.03891-.0693h0v.00002Z" fill="#6c63ff"/><path d="M445.2146,126.95656h0c-.0925-.4195,.11301-.83529,.4754-1.02646,.19836-.10463,.39639-.20891,.58054-.33689,3.59711-2.49988,9.5033-3.24303,16.18744-3.39437h0c-6.55801,.21667-12.18332,1.51708-15.79514,5.15719-.44785,.45135-1.23944,.28464-1.42786-.32262-.00778-.02508-.01459-.0507-.02036-.07683h0l-.00003-.00002Z" fill="#6c63ff"/><path d="M518.4447,133.06656h0c-.26923,.33475-.72211,.43478-1.09802,.27187-.20575-.08917-.41101-.17831-.6261-.24181-4.20123-1.24013-8.47812-5.38065-12.78046-10.4983h0c4.27432,4.97839,8.80994,8.55103,13.90955,9.08883,.63232,.06668,.99786,.78835,.64227,1.31544-.01471,.02177-.0304,.04311-.04718,.06396h-.00006Z" fill="#6c63ff"/><path d="M479.88275,170.14053h0c-.82526-.09247-1.45782-.72784-1.58154-1.51016-.06772-.42818-.13495-.85558-.25424-1.27235-2.32993-8.14114-.00504-19.41129,3.888-31.73558h0c-3.69482,12.13428-4.82486,23.23816-.41785,32.11752,.54645,1.10098-.25244,2.44534-1.48108,2.41129-.05075-.0014-.10187-.00494-.15326-.0107h0l-.00003-.00002Z" fill="#6c63ff"/><polygon points="419.14313 115.35793 420.76874 120.36113 426.02942 120.36113 421.77347 123.45327 423.39908 128.45647 419.14313 125.36433 414.88715 128.45647 416.51279 123.45327 412.25681 120.36113 417.51749 120.36113 419.14313 115.35793" fill="#6c63ff"/><polygon points="491.638 55.39304 493.26361 60.39623 498.52429 60.39623 494.26834 63.48838 495.89398 68.49157 491.638 65.39942 487.38202 68.49157 489.00766 63.48838 484.75171 60.39623 490.01236 60.39623 491.638 55.39304" fill="#e6e6e6"/><polygon points="530.12292 109.09294 531.7486 114.09614 537.00922 114.09614 532.75323 117.18829 534.37891 122.19147 530.12292 119.09933 525.86694 122.19147 527.49261 117.18829 523.23663 114.09614 528.49731 114.09614 530.12292 109.09294" fill="#e6e6e6"/><polygon points="452.25806 163.68785 453.8837 168.69104 459.14438 168.69104 454.8884 171.78317 456.51404 176.78638 452.25806 173.69424 448.00208 176.78638 449.62772 171.78317 445.37177 168.69104 450.63242 168.69104 452.25806 163.68785" fill="#6c63ff"/><polygon points="481.79303 109.09294 483.41867 114.09614 488.67932 114.09614 484.42334 117.18829 486.04898 122.19147 481.79303 119.09933 477.53705 122.19147 479.16266 117.18829 474.90671 114.09614 480.16736 114.09614 481.79303 109.09294" fill="#e6e6e6"/><polygon points="522.40839 55.39304 524.03406 60.39623 529.29468 60.39623 525.0387 63.48838 526.66437 68.49157 522.40839 65.39943 518.1524 68.49157 519.77802 63.48838 515.52209 60.39623 520.78271 60.39623 522.40839 55.39304" fill="#e6e6e6"/><polygon points="416.38586 154.27486 418.44742 159.11475 423.6875 158.64972 419.72153 162.10599 421.78308 166.94588 417.27042 164.24207 413.30444 167.69833 414.48145 162.57101 409.96881 159.8672 415.20886 159.40216 416.38586 154.27486" fill="#e6e6e6"/></g></svg>